Coordinates
version=1
nRows=43
nColumns=12
inDegrees=yes

Units are S.I. units (second, meters, Newtons, ...)
Angles are in degrees

endheader
time	SC_y	SC_z	SC_x	AC_y	AC_z	AC_x	GH_y	GH_z	GH_yy	EL_x	PS_y
       0.0               -28.6          14.47          50.36          60.85         -10.97          12.82          140.1          15.64         -38.94          94.68           25.6
   0.02478               -28.6          14.47          50.36          60.84         -10.97          12.82          140.1          15.64         -38.94          94.67          25.61
   0.04957              -28.61          14.47          50.35          60.84         -10.97          12.82          140.1          15.64         -38.94          94.67          25.63
   0.07435              -28.61          14.47          50.35          60.84         -10.97          12.81          140.1          15.64         -38.94          94.66          25.64
   0.09913              -28.62          14.46          50.34          60.84         -10.97          12.81          140.0          15.64         -38.94          94.65          25.66
    0.1239              -28.62          14.46          50.33          60.84         -10.97           12.8          140.0          15.63         -38.94          94.64          25.67
    0.1487              -28.63          14.46          50.32          60.83         -10.96           12.8          140.0          15.63         -38.93          94.62          25.69
    0.1735              -28.64          14.46          50.32          60.83         -10.96          12.79          139.9          15.63         -38.93          94.61          25.71
    0.1983              -28.64          14.46          50.31          60.83         -10.96          12.78          139.9          15.63         -38.93           94.6          25.73
     0.223              -28.65          14.45           50.3          60.83         -10.96          12.78          139.9          15.62         -38.93          94.59          25.75
    0.2478              -28.66          14.45          50.29          60.82         -10.95          12.77          139.8          15.62         -38.93          94.57          25.77
    0.2726              -28.67          14.45          50.28          60.82         -10.95          12.76          139.8          15.61         -38.92          94.55           25.8
    0.2974              -28.67          14.45          50.27          60.82         -10.95          12.75          139.7          15.61         -38.92          94.54          25.83
    0.3222              -28.68          14.45          50.26          60.81         -10.94          12.75          139.7          15.61         -38.92          94.52          25.86
     0.347              -28.69          14.44          50.24          60.81         -10.94          12.74          139.6           15.6         -38.91           94.5          25.89
    0.3717              -28.71          14.44          50.23           60.8         -10.94          12.73          139.6           15.6         -38.91          94.48          25.92
    0.3965              -28.72          14.44          50.22           60.8         -10.93          12.71          139.5          15.59         -38.91          94.45          25.96
    0.4213              -28.73          14.43           50.2          60.79         -10.93           12.7          139.4          15.59          -38.9          94.43           26.0
    0.4461              -28.75          14.43          50.18          60.79         -10.92          12.69          139.3          15.58          -38.9           94.4          26.04
    0.4709              -28.76          14.42          50.16          60.78         -10.91          12.67          139.3          15.57         -38.89          94.37          26.09
    0.4957              -28.78          14.42          50.14          60.78         -10.91          12.66          139.2          15.56         -38.88          94.33          26.15
    0.5204               -28.8          14.41          50.11          60.77          -10.9          12.64          139.1          15.56         -38.88          94.29           26.2
    0.5452              -28.82          14.41          50.09          60.76         -10.89          12.62          138.9          15.55         -38.87          94.25          26.27
      0.57              -28.84           14.4          50.06          60.75         -10.88           12.6          138.8          15.54         -38.86          94.21          26.34
    0.5948              -28.87          14.39          50.03          60.74         -10.87          12.57          138.7          15.53         -38.85          94.15          26.42
    0.6196               -28.9          14.39          49.99          60.73         -10.86          12.55          138.5          15.51         -38.84           94.1          26.51
    0.6444              -28.93          14.38          49.95          60.72         -10.85          12.52          138.3           15.5         -38.83          94.03          26.61
    0.6691              -28.97          14.37           49.9           60.7         -10.84          12.48          138.1          15.48         -38.82          93.96          26.72
    0.6939              -29.01          14.35          49.85          60.69         -10.82          12.44          137.9          15.46         -38.81          93.88          26.85
    0.7187              -29.06          14.34          49.79          60.67         -10.81           12.4          137.6          15.44         -38.79          93.79          26.99
    0.7435              -29.12          14.33          49.73          60.65         -10.79          12.35          137.3          15.42         -38.77          93.68          27.16
    0.7683              -29.18          14.31          49.65          60.62         -10.76          12.29          137.0          15.39         -38.75          93.56          27.34
    0.7931              -29.25          14.29          49.56          60.59         -10.74          12.22          136.6          15.36         -38.73          93.42          27.56
    0.8178              -29.33          14.27          49.46          60.56         -10.71          12.15          136.2          15.32          -38.7          93.25          27.81
    0.8426              -29.43          14.24          49.34          60.52         -10.67          12.06          135.6          15.28         -38.67          93.06          28.11
    0.8674              -29.55          14.21          49.19          60.48         -10.63          11.95          135.0          15.23         -38.63          92.84          28.46
    0.8922              -29.69          14.17          49.02          60.42         -10.58          11.82          134.2          15.17         -38.59          92.57          28.87
     0.917              -29.85          14.12          48.82          60.36         -10.52          11.67          133.3           15.1         -38.53          92.25          29.37
    0.9418              -30.05          14.07          48.58          60.28         -10.44          11.49          132.3          15.01         -38.47          91.86          29.97
    0.9665              -30.29           14.0          48.28          60.19         -10.35          11.26          130.9           14.9         -38.38          91.39           30.7
    0.9913               -30.6          13.92          47.91          60.07         -10.24          10.99          129.3          14.77         -38.29          90.81          31.61
     1.016              -30.97          13.81          47.44          59.93         -10.11          10.64          127.3          14.61         -38.16          90.08          32.73
     1.041              -31.44          13.68          46.86          59.74         -9.934           10.2          124.7           14.4         -38.01          89.16          34.16
